<svg xmlns="http://www.w3.org/2000/svg" xmlns:xlink="http://www.w3.org/1999/xlink" width="78" height="78" viewBox="0 0 78 78"><defs><style>.a{fill:url(#a);}.b{fill:#fff;}.c{filter:url(#b);}</style><linearGradient id="a" x1="0.5" x2="0" y2="1" gradientUnits="objectBoundingBox"><stop offset="0" stop-color="#8b83f9"/><stop offset="1" stop-color="#9b6df5"/></linearGradient><filter id="b" x="0" y="0" width="78" height="78" filterUnits="userSpaceOnUse"><feOffset dy="4" input="SourceAlpha"/><feGaussianBlur stdDeviation="4" result="c"/><feFlood flood-opacity="0.102"/><feComposite operator="in" in2="c"/><feComposite in="SourceGraphic"/></filter></defs><g transform="translate(-23.551 10.913)"><g class="c" transform="matrix(1, 0, 0, 1, 23.55, -10.91)"><circle class="a" cx="27" cy="27" r="27" transform="translate(12 8)"/></g><path class="b" d="M24.657,14.342h-9.7c-3.942,0-7.15-2.806-7.15-6.256V-.4c0-3.45,3.207-6.256,7.15-6.256h9.7c3.942,0,7.15,2.806,7.15,6.256V8.087C31.807,11.536,28.6,14.342,24.657,14.342Zm-9.7-18.887c-2.611,0-4.736,1.859-4.736,4.144V8.087c0,2.285,2.124,4.144,4.736,4.144h9.7c2.611,0,4.735-1.859,4.735-4.144V-.4c0-2.285-2.124-4.144-4.735-4.144Zm4.85,13.819c-3.423,0-6.207-2.436-6.207-5.431s2.785-5.431,6.207-5.431S26.014.848,26.014,3.843,23.229,9.274,19.806,9.274Zm0-8.75a3.584,3.584,0,0,0-3.793,3.319,3.583,3.583,0,0,0,3.793,3.318A3.584,3.584,0,0,0,23.6,3.843,3.584,3.584,0,0,0,19.806.524ZM25.654-1c-1.018,0-1.847-.6-1.847-1.346s.828-1.346,1.847-1.346,1.846.6,1.846,1.346S26.671-1,25.654-1Z" transform="translate(42.744 20.744)"/></g></svg>