<svg xmlns="http://www.w3.org/2000/svg" xmlns:xlink="http://www.w3.org/1999/xlink" width="54" height="54" viewBox="0 0 54 54"><defs><style>.a{fill:url(#a);}.b{fill:#fff;}</style><linearGradient id="a" x1="0.5" x2="0" y2="1" gradientUnits="objectBoundingBox"><stop offset="0" stop-color="#8b83f9"/><stop offset="1" stop-color="#9b6df5"/></linearGradient></defs><circle class="a" cx="27" cy="27" r="27"/><path class="b" d="M-13.71-5.46a10.234,10.234,0,0,1-7.277-3.008A10.192,10.192,0,0,1-24-15.73a10.192,10.192,0,0,1,3.014-7.262A10.234,10.234,0,0,1-13.71-26a10.272,10.272,0,0,1,6.942,2.691L-9.8-20.345a6.069,6.069,0,0,0-3.91-1.429,6.058,6.058,0,0,0-6.058,6.044A6.058,6.058,0,0,0-13.71-9.685a6.09,6.09,0,0,0,5.664-3.9h-5.793v-4.289h10.2A10.361,10.361,0,0,1-3.42-15.73,10.291,10.291,0,0,1-13.71-5.46ZM6.313-10.121H3.27v-4H-.914v-2.912H3.27v-4H6.313v4H10.5v2.912H6.313v4Z" transform="translate(33.949 42.731)"/></svg>