<svg xmlns="http://www.w3.org/2000/svg" xmlns:xlink="http://www.w3.org/1999/xlink" width="54" height="54" viewBox="0 0 54 54"><defs><style>.a{fill:url(#a);}.b{fill:#fff;}</style><linearGradient id="a" x1="0.5" x2="0" y2="1" gradientUnits="objectBoundingBox"><stop offset="0" stop-color="#8b83f9"/><stop offset="1" stop-color="#9b6df5"/></linearGradient></defs><g transform="translate(-33.301 -26)"><circle class="a" cx="27" cy="27" r="27" transform="translate(33.301 26)"/><path class="b" d="M26.388,34.015H16.406c-4.056,0-7.357-2.942-7.357-6.558v-8.9c0-3.616,3.3-6.558,7.357-6.558h9.982c4.056,0,7.357,2.942,7.357,6.558v8.9C33.745,31.073,30.444,34.015,26.388,34.015Zm-9.982-19.8a4.636,4.636,0,0,0-4.873,4.343v8.9A4.636,4.636,0,0,0,16.406,31.8h9.982a4.635,4.635,0,0,0,4.872-4.343v-8.9a4.636,4.636,0,0,0-4.872-4.343ZM21.4,28.7c-3.522,0-6.387-2.554-6.387-5.693s2.865-5.694,6.387-5.694,6.386,2.554,6.386,5.694S24.919,28.7,21.4,28.7Zm0-9.173a3.714,3.714,0,0,0-3.9,3.479,3.714,3.714,0,0,0,3.9,3.479,3.713,3.713,0,0,0,3.9-3.479A3.713,3.713,0,0,0,21.4,19.528Zm6.25-1.62A1.209,1.209,0,1,1,28.824,16.7,1.194,1.194,0,0,1,27.647,17.908Z" transform="translate(38.744 29.744)"/></g></svg>