<svg xmlns="http://www.w3.org/2000/svg" xmlns:xlink="http://www.w3.org/1999/xlink" width="54" height="54" viewBox="0 0 54 54"><defs><style>.a{fill:url(#a);}.b{fill:#fff;}</style><linearGradient id="a" x1="0.5" x2="0" y2="1" gradientUnits="objectBoundingBox"><stop offset="0" stop-color="#8b83f9"/><stop offset="1" stop-color="#9a6ef5"/><stop offset="1" stop-color="#9b6df5"/></linearGradient></defs><circle class="a" cx="27" cy="27" r="27"/><path class="b" d="M23,2.212a9.465,9.465,0,0,1-2.71.744A4.732,4.732,0,0,0,22.364.346a9.43,9.43,0,0,1-3,1.144A4.721,4.721,0,0,0,11.2,4.718a4.771,4.771,0,0,0,.123,1.076A13.4,13.4,0,0,1,1.6.864a4.723,4.723,0,0,0,1.46,6.3,4.68,4.68,0,0,1-2.137-.59v.06A4.72,4.72,0,0,0,4.71,11.257a4.711,4.711,0,0,1-1.243.166,4.642,4.642,0,0,1-.888-.085,4.726,4.726,0,0,0,4.408,3.277,9.48,9.48,0,0,1-5.862,2.018A9.511,9.511,0,0,1,0,16.568a13.353,13.353,0,0,0,7.234,2.12A13.333,13.333,0,0,0,20.659,5.265c0-.206-.005-.407-.014-.61A9.591,9.591,0,0,0,23,2.213Z" transform="translate(15.1 18)"/></svg>